<?xml version="1.0" encoding="UTF-8" standalone="no"?>
<!-- Generator: Adobe Illustrator 19.1.0, SVG Export Plug-In . SVG Version: 6.00 Build 0)  -->

<svg
   xmlns:dc="http://purl.org/dc/elements/1.1/"
   xmlns:cc="http://creativecommons.org/ns#"
   xmlns:rdf="http://www.w3.org/1999/02/22-rdf-syntax-ns#"
   xmlns:svg="http://www.w3.org/2000/svg"
   xmlns="http://www.w3.org/2000/svg"
   xmlns:sodipodi="http://sodipodi.sourceforge.net/DTD/sodipodi-0.dtd"
   xmlns:inkscape="http://www.inkscape.org/namespaces/inkscape"
   version="1.1"
   x="0px"
   y="0px"
   width="24px"
   height="24px"
   viewBox="0 0 24 24"
   enable-background="new 0 0 24 24"
   xml:space="preserve"
   id="svg879"
   sodipodi:docname="switch_true.svg"
   inkscape:version="0.92.3 (2405546, 2018-03-11)"><metadata
   id="metadata885"><rdf:RDF><cc:Work
       rdf:about=""><dc:format>image/svg+xml</dc:format><dc:type
         rdf:resource="http://purl.org/dc/dcmitype/StillImage" /><dc:title></dc:title></cc:Work></rdf:RDF></metadata><defs
   id="defs883" /><sodipodi:namedview
   pagecolor="#ffffff"
   bordercolor="#666666"
   borderopacity="1"
   objecttolerance="10"
   gridtolerance="10"
   guidetolerance="10"
   inkscape:pageopacity="0"
   inkscape:pageshadow="2"
   inkscape:window-width="2580"
   inkscape:window-height="1779"
   id="namedview881"
   showgrid="false"
   inkscape:zoom="61.333333"
   inkscape:cx="12"
   inkscape:cy="12"
   inkscape:window-x="143"
   inkscape:window-y="-13"
   inkscape:window-maximized="1"
   inkscape:current-layer="Rounded" />
<g
   id="Header_x2F_BG"
   display="none">
	<rect
   x="-50"
   y="-402"
   display="inline"
   fill="#F1F1F2"
   width="520"
   height="520"
   id="rect851" />
</g>
<g
   id="Bounding_Boxes">
	<g
   id="ui_x5F_spec_x5F_header_copy_3">
	</g>
	<path
   fill="none"
   d="M0,0h24v24H0V0z"
   id="path855" />
</g>
<g
   id="Rounded"
   style="stroke:#a5a6a9;stroke-opacity:1;stroke-width:0.3;stroke-miterlimit:4;stroke-dasharray:none;fill:#00ff00">
	<g
   id="ui_x5F_spec_x5F_header_copy_5"
   style="stroke:#a5a6a9;stroke-opacity:1;stroke-width:0.3;stroke-miterlimit:4;stroke-dasharray:none;fill:#00ff00">
	</g>
	<path
   d="M11,6c1.38,0,2.63,0.56,3.54,1.46l-1.69,1.69C12.54,9.46,12.76,10,13.21,10h4.29c0.28,0,0.5-0.22,0.5-0.5V5.21   c0-0.45-0.54-0.67-0.85-0.35l-1.2,1.2C14.68,4.78,12.93,4,11,4C7.96,4,5.38,5.94,4.42,8.64C4.18,9.3,4.65,10,5.35,10h0   c0.42,0,0.79-0.26,0.93-0.66C6.96,7.4,8.82,6,11,6z M16.64,15.14c0.4-0.54,0.72-1.15,0.95-1.8c0.23-0.65-0.25-1.34-0.94-1.34h0   c-0.42,0-0.79,0.26-0.93,0.66C15.04,14.6,13.18,16,11,16c-1.38,0-2.63-0.56-3.54-1.46l1.69-1.69C9.46,12.54,9.24,12,8.79,12H4.5   C4.22,12,4,12.22,4,12.5v4.29c0,0.45,0.54,0.67,0.85,0.35l1.2-1.2C7.32,17.22,9.07,18,11,18c1.55,0,2.98-0.51,4.14-1.36l4.11,4.11   c0.41,0.41,1.08,0.41,1.49,0l0,0c0.41-0.41,0.41-1.08,0-1.49L16.64,15.14z"
   id="path859"
   style="stroke:#a5a6a9;stroke-opacity:1;stroke-width:0.2;stroke-miterlimit:4;stroke-dasharray:none;fill:#64dd17;fill-opacity:1" />
</g>
<g
   id="Sharp"
   display="none">
	<g
   id="ui_x5F_spec_x5F_header_copy_4"
   display="inline">
	</g>
	<path
   display="inline"
   d="M11,6c1.38,0,2.63,0.56,3.54,1.46L12,10h6V4l-2.05,2.05C14.68,4.78,12.93,4,11,4   c-3.53,0-6.43,2.61-6.92,6H6.1C6.56,7.72,8.58,6,11,6z M16.64,15.14c0.66-0.9,1.12-1.97,1.28-3.14H15.9c-0.46,2.28-2.48,4-4.9,4   c-1.38,0-2.63-0.56-3.54-1.46L10,12H4v6l2.05-2.05C7.32,17.22,9.07,18,11,18c1.55,0,2.98-0.51,4.14-1.36L20,21.49L21.49,20   L16.64,15.14z"
   id="path863" />
</g>
<g
   id="Outline"
   display="none">
	<g
   id="ui_x5F_spec_x5F_header"
   display="inline">
	</g>
	<path
   display="inline"
   d="M11,6c1.38,0,2.63,0.56,3.54,1.46L12,10h6V4l-2.05,2.05C14.68,4.78,12.93,4,11,4   c-3.53,0-6.43,2.61-6.92,6H6.1C6.56,7.72,8.58,6,11,6z M16.64,15.14c0.66-0.9,1.12-1.97,1.28-3.14H15.9c-0.46,2.28-2.48,4-4.9,4   c-1.38,0-2.63-0.56-3.54-1.46L10,12H4v6l2.05-2.05C7.32,17.22,9.07,18,11,18c1.55,0,2.98-0.51,4.14-1.36L20,21.49L21.49,20   L16.64,15.14z"
   id="path867" />
</g>
<g
   id="Duotone"
   display="none">
	<g
   id="ui_x5F_spec_x5F_header_copy_2"
   display="inline">
	</g>
	<path
   display="inline"
   d="M11,6c1.38,0,2.63,0.56,3.54,1.46L12,10h6V4l-2.05,2.05C14.68,4.78,12.93,4,11,4   c-3.53,0-6.43,2.61-6.92,6H6.1C6.56,7.72,8.58,6,11,6z M16.64,15.14c0.66-0.9,1.12-1.97,1.28-3.14H15.9c-0.46,2.28-2.48,4-4.9,4   c-1.38,0-2.63-0.56-3.54-1.46L10,12H4v6l2.05-2.05C7.32,17.22,9.07,18,11,18c1.55,0,2.98-0.51,4.14-1.36L20,21.49L21.49,20   L16.64,15.14z"
   id="path871" />
</g>
<g
   id="Fill"
   display="none">
	<g
   id="ui_x5F_spec_x5F_header_copy"
   display="inline">
	</g>
	<path
   display="inline"
   d="M11,6c1.38,0,2.63,0.56,3.54,1.46L12,10h6V4l-2.05,2.05C14.68,4.78,12.93,4,11,4   c-3.53,0-6.43,2.61-6.92,6H6.1C6.56,7.72,8.58,6,11,6z M16.64,15.14c0.66-0.9,1.12-1.97,1.28-3.14H15.9c-0.46,2.28-2.48,4-4.9,4   c-1.38,0-2.63-0.56-3.54-1.46L10,12H4v6l2.05-2.05C7.32,17.22,9.07,18,11,18c1.55,0,2.98-0.51,4.14-1.36L20,21.49L21.49,20   L16.64,15.14z"
   id="path875" />
</g>
<g
   id="nyt_x5F_exporter_x5F_info"
   display="none">
</g>
</svg>